<mxfile host="app.diagrams.net" modified="2022-12-31T10:58:36.436Z" agent="5.0 (Macintosh; Intel Mac OS X 10_14_6) AppleWebKit/537.36 (KHTML, like Gecko) Chrome/108.0.0.0 Safari/537.36" version="20.7.4" etag="e9LrGiUT6ehyYPOOgpYF" type="github">
  <diagram id="2q9Jxsn-ds0ygmqrDVHK" name="Page-1">
    <mxGraphModel dx="2074" dy="1165" grid="1" gridSize="10" guides="1" tooltips="1" connect="1" arrows="1" fold="1" page="1" pageScale="1" pageWidth="827" pageHeight="1169" math="0" shadow="0">
      <root>
        <mxCell id="0" />
        <mxCell id="1" parent="0" />
        <mxCell id="woVpzeUqnNtOAN9zLcub-1" value="" style="rounded=0;whiteSpace=wrap;html=1;" vertex="1" parent="1">
          <mxGeometry x="50" y="320" width="720" height="300" as="geometry" />
        </mxCell>
        <mxCell id="woVpzeUqnNtOAN9zLcub-2" value="" style="outlineConnect=0;dashed=0;verticalLabelPosition=bottom;verticalAlign=top;align=center;html=1;shape=mxgraph.aws3.cloud_2;fillColor=#F58534;gradientColor=none;" vertex="1" parent="1">
          <mxGeometry x="570" y="426.5" width="75" height="75" as="geometry" />
        </mxCell>
        <mxCell id="woVpzeUqnNtOAN9zLcub-3" value="" style="shape=image;html=1;verticalAlign=top;verticalLabelPosition=bottom;labelBackgroundColor=#ffffff;imageAspect=0;aspect=fixed;image=https://cdn4.iconfinder.com/data/icons/ionicons/512/icon-plus-128.png;fontColor=#e9dddd;" vertex="1" parent="1">
          <mxGeometry x="380" y="420" width="81.5" height="81.5" as="geometry" />
        </mxCell>
        <mxCell id="woVpzeUqnNtOAN9zLcub-4" value="" style="shape=image;verticalLabelPosition=bottom;labelBackgroundColor=default;verticalAlign=top;aspect=fixed;imageAspect=0;image=data:image/png,iVBORw0KGgoAAAANSUhEUgAAAMgAAAB6CAYAAAD6WhzgAAAABGdBTUEAALGPC/xhBQAAACBjSFJNAAB6JgAAgIQAAPoAAACA6AAAdTAAAOpgAAA6mAAAF3CculE8AAAACXBIWXMAAA7EAAAOxAGVKw4bAAABWWlUWHRYTUw6Y29tLmFkb2JlLnhtcAAAAAAAPHg6eG1wbWV0YSB4bWxuczp4PSJhZG9iZTpuczptZXRhLyIgeDp4bXB0az0iWE1QIENvcmUgNS40LjAiPgogICA8cmRmOlJERiB4bWxuczpyZGY9Imh0dHA6Ly93d3cudzMub3JnLzE5OTkvMDIvMjItcmRmLXN5bnRheC1ucyMiPgogICAgICA8cmRmOkRlc2NyaXB0aW9uIHJkZjphYm91dD0iIgogICAgICAgICAgICB4bWxuczp0aWZmPSJodHRwOi8vbnMuYWRvYmUuY29tL3RpZmYvMS4wLyI+CiAgICAgICAgIDx0aWZmOk9yaWVudGF0aW9uPjE8L3RpZmY6T3JpZW50YXRpb24+CiAgICAgIDwvcmRmOkRlc2NyaXB0aW9uPgogICA8L3JkZjpSREY+CjwveDp4bXBtZXRhPgpMwidZAAA9tUlEQVR4Ae1dB2BVRdb+0gtJICShhV4EEekgFixYcVFERRdsa+9d195Fxbprb9hQUYqdXxAVxEqVJlXpnUAIhPTk/d83Lyc8ni+V4LrrPcm7Ze60e+6cmdNmJsxHgAd/OAaEdv3CwsLcryoVKCkpYVzwF16V6F6cWsBAmEcgtYDFamRhhBEevruR5+bmYsf2LGTt4C8rC0VFhQgnEcTXqYP69esjMTERSXXrlpXi85XwuuqEVZbQu6g2BiKrncJLUCMMBBKGRo1du3Zhwfz5+OnHnzDtxx8wasyYcvONQAxuvvlaHH7EEejRswcaNGzo4mpECSS0cjPwHtQYA94IUmPUVS2hCEMNOSIiwiXYuGEDPvjgQ/zrscewbNXKskyuu/Zy9OvbG+mNUpEYE43C4mJsy87BunUbMWPuQjzx5PNlcUe88goGn3EGEpOSXN4ekZShptYvPAKpdZTuzjCwh9++fTveHvk2rr7malx91RWIi43Do48/gWuuuRwXDDkZndq2QEQkBQyJhI6FYj6SNRhUUuzDtiyOOMtWYfSnk/DCcy+jT49eeOe9UWjdto1HJLtRXutXHoHUOkr9GRpx6PzZJ59i4KBTcO89d+HM0wdj564cjHjzTZx8XB8cd1gvRGpwyc1BUWEhaaMIKNa5mD/KGk6QByKjohEeG4u8kjDMXbYGl954P+bOWYB5c+bgwC5dPCLZR9/Rk0H2AWKNONavW48LLjgfsdGRWDB3DqKjozFq1GjMXzQLj99zM1o0oyyRnY3CvBz4ivI4VBQhjKOHBhGn3VLdpLZiQGF+LoloFyLCw3BQmwb4YtS/cPODL6Bz166YP3cuOnXu7BHJPviWu1Up+yDzv2KWRhxLFi1GetN0DBx4El595VUs/205Dtz/KGRkrMXbzw1Hi0b1UbRtGwqyt8GXvwNhJYXipkgPEeSsxFrppxAX6ITx8Mgo+MIjkbdzFxpE+fDEnZfjoIO7uxFk9apVLo7K96D2MOCxWLWHS3b0frtGRkYG0tLSMG7MaBxzdD+89cZIvDf6MxxzbC/ccfU/EFWSj8LcbPhySRhwwwUHj2ISBO0c4SQQEUe5oPjhKC4oRGxCHazLC0fTjkfhb/2Px+ix4xAfH19Wj3Kz8B5UGQMVfYkqZ+JF9GNABCJ4bcRreOD++9C3b188/PBwDL/jcbTbLx1XnDcIUSgsJY4sN0CU+PkpxKSkIaZ+A8eGOR7Ln2XQUfmTpCifRFEeKamTgrg6SRjzzqsY//kEfETtmMDq4W68w15hwCOQvULf7sTGWomVev7JJzFr1mw0aNQYmZnbMPTKIWjSuB4aJCehOG8XfHk7SRxh1E4VIzo+ESXJ6Zg8dwVeGfs1lm7MREQUWalSYttdQsAVn/ni6+Lpd8YjpUV3DD7rQuhDPvLg/dhGtk1q3wrTB2TlXVaMAY9AKsZPlZ4acSym3NGGatdVmzfhiL6HYd7Ps3HDDTfg6H798NU307B9ZzbCCilsl2qoouITkBWRiCFX349+/f+Op595BS+y0Rf6aCUvp2SSBiIjI5GVmYn9GsRjxQ9jMWncCxg8+BTMX7IU8+fNdSk9AikHgdUM9rRY1URYcHQ1RPXY+fn5uOO229zjyV9/habp6Zj0xVeYMXMW8vLyUFQSgcKcndTXFjoZguMHCmOTcMG1w9ChSQI2LfwCdaMjUEA3kzD+ygT0PQoU4YShuMSHpEgfTjysC0DZpWV6Knp1bo/83AxMnjwVRxx5lBuh9kjq3dQIA94IUiO07U5kPfWSxUvwwccf4aMPx6FBaipuuvl2/PjTdNSrVw9pvK9XLw7hPjZ8qXGLSxCVkIjJP/6MujHFGHbLpUhjVxVemA+K2I42LN/dJdmVX87RXT7tKfkF+cjN2om6UcCD/7wKYz6aSJNKjiOQ8vOwvLxzZRjwCKQyDFXx+YIF813M1q1aY8SIN9CoUUOkpqVIpKYVfCf2b94ACTGRrvenJyLZrBIU52fjtsuHIoz2jfyCApEGaDR3IDYqZAN3soki+UeucMoyEVHMN68ALRqm8BeOjK3b/Jl4x73GgEcge4VCv8u6sti4cRMGnzoIa1avweZNW1CH6taC/AKE0wcrY1sWDmjfCjE0mZdw9AgngRTm5OK4ngegVWqSixcRwSGE7T6CtLOroBi/bdxG63mQsE5iCGOY4jltFkejKKbbkpWDXzdlIoFq39aN6mL9+g2KEJrA3BPvUFUMeARSVUyFiKfGLifETGqOJnz6Kb1sGzniCCchFFNDJVAPn7E9B62bN+adWrYZ/3hZVOAEdkYhyMDHMSQmAXFp6fh20WoUiSCYxC+Yh2N7dh6+W7DcqXh9lENcqogoRKc2wYTpi0BqQWpiHEcjsnKEkCOQe+IdqooBj0CqiqmgeE5zReKQd+5pp52KSd9MoarVh1z6VCXUSUAM3UrCI/zq1vDwEqQlJzq2yujDZecMgqIOP9HISFgSGYOYuBg0qJ+GHxeSGOpSDUxCLCFBKPzzb2ch241CyiGM/lnxSGuchjpxcVi5PgMt2u+HGdNnuuw9da9Dw14dPAKpAfpMrbuVFvPDB5yE7VO+wfWtWmEDJz0V09Fw7rwFWPbrr/Q5LEQUZYkoEkIM5YTfg38U8IeTSMgyRYZz5CnKxwl9O2PcpJ+wdNVGxMbGoLCwCElJddCwXgIm/TAHkWSnRDTL16zDb3PnIXNLBl4bPQGJqU1x003X4pOPPiwV1H9fqhdSdQx4BFJ1XLmYapTqmTXh6YrLLsey2bMw6sQTcEiDNIz94GNcff0NqEPN1LaM9Xj+pRewhTYRzQzcuG0H+a1AdO8mDsndMhzm8fzo8+/itZFj8fXUH/DMiC8xdQbtGjExZJdYfH4eTu1/OE497xasy9iJ2KQEvDr6c7Q95FSM/HACTjv+MPioCRMMHHQqvv7yKyfviKA9qBkGQnVrNcvpL5GKMoI0UIR/cy7H6HFjMfuE49CAbNX18xaiUVojjH//OXTo0JoCeSQ+/XwKBv39Qpwx+Cz29JvRr8f+Tqbwo8qfj64lg8i1PZppmjRtiOdGfoJf1m3B/dcOwKBjDkUx1baSdfKpqWpJTdXIF+7HkBsexpdvPoI7Lz4dlw4+Hsn1kpBUP4Gu8CswnHnm9T0YRx97DJYuXoR27Tt4nr5+pFf7GNilVTvxXy2BRg816wnjx+OOe+/B6KP7oVteLn4uKsJaOh9OGP0CGjVMw023DcNb74zB8cccjMsvOhujx3yNb36cg135nGsuNVUoIJWEU7A/u39fTB75CNZ/+SruuGQwkqOp+qXMISIKo8aqcOcOnHliX7Rr1gSPvDAK8RxFWqQkIo7ewMjJw07m0Yb5X8nwVJ4vvuJyjnbZbtQzwT5U8V5YaAx4BBIaL78LNblj3do16D9gAG7p0hkDizm5idqn1QsW40i6enRo2wxrV/6G7B07ccEVwzDug08w4PhDGWcDDuq+v1uIwZ/xbvZqd0H+sAI25kga/+Ko4SriyFFUJOLwE5VsKj5eR5Aon7jjMtwzfDRGfDQZJXHxtK9QdiELV0AiUeyUnGx83O8IfPP1FLzz1khXjLRhHlQPAx6BVBFfsl0IXnrpJXe+qhE9bykTFFOwLqZD4n5NGiKG2qr9mtbHwT06omDdl1i+ci2n0jbF9kUTcdnpx9LNnTMFXRv15+UyKjuUEgEbuaJISax5ISIOqWsVpqPuCzli1eN8kOUzXsNFV96JMZN+RDS1WD6OHlszMlGPcYsYpxtHtWf69MalV1yBZbT0S3by5BEipxrgEUgVkOVvVGF0PpyDBx4chjFHHoGmuXnI1dRYaqrSW7fA2MXLnYxQzN4/pk4ciSEP5518FBLJUtXlXPMS+mOZa3sVinSjgItHyogkcUYl1qdKN5HEojkj4cjZsQut0tPw3ksP4/V3PqGFMQr5NMOvWLcJDdKb+gmBdTslNtpl8+LLL8sw4oikKuV7cfwY8AikCi3B2RMof7zyxhvowPjHSGVL15BCCtYl7KlbN22MbRMnYenq9aiflIgubZohPycfzZITUIe2kHyqaCXc6686oNEmgum35BQiO5/sHIlPjTyahsj4+snI3J6NkeO+xAV/H4DwSBoSd3F9rXnLUL9RMkoKiyEGsBHdWMb0PRRPPvUkPX3nueK9UaTqX8EjkEpwZY1p6ZLFePbpf+NhurHXI2uVw9FDyCtir51OO8c5vH557P/Bx568R2vONScBlbC3j06Ip/tI9QhDVdJIIWt8OI2DX81YgEW/LkdkEl0ZY+KxKjMHL46eiO5n3IRzzzgOpx7bhzxZCdZv3YGk2XNQVzYSphU7VsTzIVHhqMM8R4/7QFkz3PvsDhFVOHhq3kqQZALyxC++cDEPjY+Fb8d2J3uomRXTFyQ2hzaRvn1wMNeuOqhNY5zW/zDE1YvHtp25mDjhe/ytby+OJMVs8H6VbvlFcsjgP/19EcMZg2zlLKAY+7dMR+8ht2PYZSdj9eYM2kB2YMARPTHz/UeR0jAVs2cuQJ3EBPxK9qozM4+mSrhAoxXzKuQvlWrop3p0wyUP3I/LLr4I6c2aOeLV6o0eVIwBj0AqwI+EYxHIDq5pde1Lr+LR9u2QxpEhh2xVqUjNUSQM+eztu5Dff71XN5xz5V34/KxT0a9PV4x46wMcSVvE4JPqU5DfSDbLv3gc26yDPcYVluXjc/8Cc8WcYbgMjVOSkd6gHjrT0XHRxGexkw6OyVTfpnEkiYmOwer1m/HEy89jyYr1eO3JW/HQ62NxPhIQRl+sEtZbzV9aL0r1OJRu94IZM2Y6AhHxVJPjc+n/agdv0YYKvrjYK8kfs6fPQI+DemMa7R69OWV2B5fgiVDvKyGhFJwKlquOfMfe+/Hvp+NLhnfr1gNTx7+BBF8e8rdvdnkphRwYXVIdSqlEhsKopBQUUHYoKcjGusxduOze5/HVxJk4vX9X7H9AW84/j0Mkyz2eKzD+/aI7sWjFCnTksj8/vP8EtlG13LrXKVh7xMFIzd6FQpahrF15LKeQbNcl3/yIRGq0Xn7madbFT6yl1fdO5WDAG2PLQYyCjb2aOednF6sNBeFizfhT37ybNnjPBi+C4ShyFO0X444+DP/u2hE/x3AWIeUVZlTqZkItEq/zOQuwmEFhctV14KcSH+0qxZxU9ez7Eznpqh4mjbgPUz98GN17dMLCBb/h7vvexQOPjHSsW/8TDsXo1x/H96OGo25iLN6jqvdG5pVCZUAhCcKfo5/+5GgSz7r179IJI55/Hhmbt7hSPW9fh4YKDx6LVQ56jL0qYaOdPH06rmS8epQJ8iX8ujRq3HbFa3dLfyo2/oQdO9CdMwbx3TSsJRuUvH9LIEuevcVcRTEM2QVF+Jnu7Cf03h/5nKceTgu5iFFTcuO4yNxZA/th2MtjcTkF8L6HdEffw7pTG8ApuiIsNn5KQTi8S2uWzj/WaeXaLbj99uGYdlB3RJANK5T9xNXRfxCbFcZ6ty9ls1ZzzkqDRo1YHz8LGRDVuwzCgEcgQQgJvs3KzMJ7n03ACFrOIyh/FLORS5Zg29qjEVo6Cb75ZJfaRnNiE+GnOb/gQLJHbtE3sk8FlAcaptTD6m9mY2a9Oui5XzMuBJdN2SOK45IPBXn5aEIBf0j/Q9GKLNN5QwfhsC4dUDelLqI4Z72QxFVAjVX/g7sikYbJsIQkPP3BJFzNsg6kAqGQrFaw8C1ikVarCVXGgt9++w09e/dy196hYgx4LFY5+DH2Q/t1YNM6tKGWiIvnsgmzN3bEEdhH785EoUUkkhQS06g2LXHJex9j584cRMYllPbYtGbTaDj4+EPwzHsTsDErF7FxsVRWyWpB5o2jSX52Lrq2Tsfi78agCYX0tz6ehJseeQ0vjPgQU6fNQ2NO5Y0luxfFfUOm/rwYTz3yHC7tdygidu5EMUeP34OWiABoZnRarhV0lxEYC+luvENIDHgjSEi07A7csmWzu2lAi7SPaluxNaHB8Vilj3woooGuPy3snEmFn7h9wbGH9mD67Vy4ocixSsm0b9x50am466m38MRtFyOJ93n0owqnR6+Mfvl0p2/fOBkPXX8ecjlqFHHIipFFnUbKMMoTWvF69dZdGPqPu9nyE7GBhskOmo4rDRZHuHBVhwThBx9HPnrNcxTpzYBFy1c4G4ttyVAayTuFwECo7iZEtL9ikL9xZdNhUBDDnr2YrNNu+pDeyk8s/pi6lw8V163SLzoOK2j9bs2w5199D3n5xXRBSXQjhTRI+bvy0Y6uIpedfRLOv/1prM/mUqJ1k8gL0TrvvHdJJGS38rkObyQF/1iqlkEnxRLVh0T06+YduPKWh7ApaxMXhGiOY6fNxGRK/prJGMY8Ah0TNVKorpGUV5omRGLphvVuJXm9l42Uuvbg9xjwCOT3OHEhkjEERTLWEWQNl2V89wiiJqdI1EzxqCZJ5gnx7Nm30dr9xq48dJv6PXzNkvHRR5/i/c++QlhyAxJBfVIRNWFMlEv5pkfrJrj36iG46t5nMHXer4Cm63LBhyjmIzcT+0VxBIvmhjnbSATvTJyGdr1PoXyzBQffOBxRhw9G88bpOJYzCz/g4BLBDXgiWFexVQ7cy7C+PMdzJcetFOSdEGXPvXO5GPBYrHJRUzo6lBKKWzxB10EcliMTNrw4sj+7omMxhezQw/Om4Tt29B2PORXRbQ9AlzVL8I+LruF89XwM4ByRNK6nK89fChx0dixC00YpuOy8wRg04J8477L+GMhZg/s1b4gkziSMoEyxkxOl1mzazNmF8zBi1ARu3bYAaNgAGVzBJGX9GkS37ojkUy5B4sevYAgXqnuua2ecG8+09N2iJcdf5VKVciTLLCCrZR1Aua/vPXAY8AiknIZgdCC7hUDqVTd66LaUaOSdKwSGU2M1HxF4af1GvLRiNVIPPxF9DuiFXfTAzWX66Lop6M6psJdffTN+OP9CtG2WipjCTKQ1SOZ03HoYconmAHLVxT5d8NSLI92vS5t26Ni5DTVOqzB9HlcsIVw09AzuJUKHxZbNcXVcHTQryMJDo55F/TOvQDyJJGLQpeg26X1cOWceCjofiIvrkN3SCicS3FlnvYEmX8XSmFn6Wi5f71A+BjwCKQc3vrIe18+FFpDVco3KRhF698aRDcqkPPARvW0v+XkW0Go/9DnvRuQ3bIZMkRPjRNDwl0djoa9BC5YUho5tWuKMv3OxOMo0O6khG3LHvRhRpwgDDjkCS7dmYnrP7ni7IA8/cwrv6WeehPPOOh2NGyYhlbvdfjJ5Jr5/dxymHNILfViuWwiCvNo/F81GR1auqElLxJ10PnrU+wzXT5uMQ+n60pVsWh7r4SdubR66A/XJwnkarHI+fFCwRyBBCLFbG0G0AJwgVxZ0NkIfF5YO58hRTGF4Ko13L3KpnTF0+TjwmEGI63QQsmLrcOJSEcIZv4iz+nZtz6DadgdpIxJtTr8Itz33AeaQRTr37KHowLniXdMScFTrZmhAokiLi8bB7O1Ppz1jYtcueJXEsC0zg75TDfHT0hWIeWMsvj36SKqQ87ErezsXkYtGlwhRLIG7VG1dMh/JbfZHSre+AAlEFnUaRfiQBMLLIl6vySni5K7GbgV5JfMIRVgoHzwCKRc3/pEjjauVCDaStelE1kS2EKqo8BYXcbtqAWWB+Ej0Pusq5DVrj51skD421MKdWcglYRRS6xTBHaMiudaVBOSdXDFxP3r9vr95K94/aaDLtzWJLubwQ5GTncWdQ8L550NDhl3AJX46cSGGIS+8hTcZs2PDpni9WxfMp4DdlaOZZBNBKkcxrhRH1W4kw8iorVxGTRq1Val0dOQzeQJw+HD55nLU+olpzm7V2jlFepZ0h8IKDx6BlIMetlEHdevSC7ZpM6yk+0gJ9/eIpA0im2zNG1zOp3mHzmh85CDsrJvKlUeyUZC1Fbk7tnH3pwJnGY+MEmEwGxEOT7RgYAeNhC2S66Le0Ks4/ykXRdyvsIR5Snj2a53IKjF+Tn4+dnDDzgP274A2bVqgaHumWxnlgPbcJjorE/mMrzSxqqhU0CqA+SfSFrJ0zUr8Mz4KKSToIioBSB3Ouq79rH5hrFbNmykyq8WRxV7UhXiHYAz4u6HgUO++DAMikKEnnIDZC5egQHsE8i+WbfIIskOrOToUc48P9dK5GRuQvWk9wtmoo0gYzt2DvH+gukhyjcYI+VRtontJgS8Cyyik5xRzDV/pfRldqmOfDIJko45PjMdJ27eh2WcTcXdmNjZyX/Xp3FJhGeNty8vGjpztWE/WDdSKabEUcn+IkVqaRso+rHcMNwWV+ln/GnE2UHslaNu6ddn7eRcVY8AjkHLw45c32KDJphzVuzdeYbxM9tTSasWyER7E7dKw8GeEb1jp+Hm5ksgK7jx9NRS4xr5n5mFqwQ4kMocjjnFAu8RvXA7Ix95edhbRVAQP0cn18dk3UzGn/wB8yG0Vbn73XUxetBAfXnM19v9lCS5Ia40rW3bFdbPmctSIwS4SWBSz30kbC3ZsQUeudOKjjMQhwpWo/Bdz0x1BM06YEnijh0NDhQePxaoAPcaC9OjW1cVaSRVpI7I1mgrblcY4bjiIzJVLEd9sP0TExrHRS4hXqy8fNAIpntptAR0f1ft/uakIfeP9XrrhFP53sIwP507FRa064VzKPIf26uW0Xr/SyfDJe+9DOg2Gy9v2QXKTdPQ89mTkv/QkdiYlI5EKgl+zduBiXy4aR3IXXbJpml4bwTrlUqAfP28mLr7qKqqXOSWY4BFI+d/JnngjiGEixNkaUNt27cANyTGFbuJFbGgikMZs4De3aodl839ANAXsCC4iLdWt1tctD9wA4rRKYqXCkEOXkBYxsXgyvA6WkhA2kcjG0x/rCrrJv3rlY7jnuTfx1sost1tuXHwcfluxHAlkneKT6nHEodxBgk1p0x7JLdtiJ0eLOFEdlQOHU/Om0UmO+SJXsV9ryR6O4/WAo492C0jYXPvy6uqF+zHgEUgFLcHYrMS6dfHMhRfg7hWrsJkNWrMJ5fh3lDx86SsVtm0Twkk44W4NXTbJUrZmj6wZFkZjYcRObm7DBquRRA1Ynr/JjZvjkuUrcMSqDThlzgJEP/8ODj3sGGyk5H3tVVfj8muvR8aWLThr6Flk8biAIt3mtU9IDH9rpn+PGSs2IYV1LKSqGNs2olMC61WqvZITDGjI/D5zu6tOz54996iWd1MxBjwCqRg/ZSzTcccd62L+RHVvuHZ0ovNgJ7JZPclprduwGjFsuJEkHq5FQmE5mM3iPWUA385MuqlHog7X8FV6EaBWHUlIqI+1fQZiRU4Jzqfremq7jtwLJJtTb/MQVb8hmp53LaZO4fKl33yDTz/5mKNIXa5uEkfNVgZmjf8Ijdq2QzS1VYspnJ+Zn4nmJBznQ8b8NUV3M33DLpk9F3fdcy/X/m3q3klTiT2oHAMelirBkTWk/dq3x7XXX4/rfpiGrRKA+deAxPD3Vm2wbtUyNtACRFIGcFJ2aZ5+MtHRCIbyBxt2VGKSS18qjXD+eDhnCVK7RHeTpBZtmCvlBq29RXYtm1b4k044EU8/+Ti3km6EXpzotGLjVqTUicdv336F5ZGJ3DcnAlz/HeCK8sdy7nk8ibWIt26eOwnhO6l6CWdyHxNBZXKSi+QdHAY8AqlCQ3D8Onvji847DxsZ/6tCugCylw7nKNCHAjNWLKYbOmfyiXDYOP2cv5q/QEf9SFKUA8I1yjhBvvQprxW/mCrZnIhoTLr3OmT8NIXu7YVcpCGBIwE9hFMaYGbz7viVK7XXY3kZMUnI37gW//fxZ2ie3oxqY2rBtFvVpjWc6lvHucZH02oYz+VI16U2xJDvfsQwrgh5wIEHqhp0zfKXrdp5UDEGPAKpGD/uqVtZkQ2rU5cuuPeeu3HOdz9gJe0fEVT3plP26MBY22m801I8bsRhXCMTlwEPTiNGa3cYicDvIO9/4jRaVOsWR9dBxEH9sTU2Ge/edS2m3H0VNv0wBTE5dFMhW/aPwUPw/nvv4ZdfFnIz0AgsmPgxIsmKySiZwOm6i3ZsxRW+XWjL0WkNFQZfxSdh+Jr1OGb8BFdQh/32c2eNfH6CdbfeoRIMeMv+VIIge2xLAG1Yt87x8dd1OgD31aXmikPGjb9MxyuHnYUenXpj3dIFXCBBflv+eevqsuVw7iMhlWzfgnqUP0oa0Jnx1wVko+ht64iJpbBT95EdiqTdJYbpd61Zjo0zJnMx7CZoO/BstO7aC4s+G4M0Llq9Pq8Iv+RHIrZeqttTnesoYsmcHzCsQQJSaIS8bJZ/FRauFYRR99yFNStpWb/1Vnz99dc46qijOCeLTBxVyR5UjgHPDlI5jlwMjQwiksbp6fji//4Px514Inoc0RdnccX2/WmDwLYtiBa7xFHEt4sEwvbnWC2yOiVuqq0IRewU3c2p7arPKbbRckXhvS0zWkQ5pjDXvyhDdGpjtDt2EErWLcfM5x4Fp1Ih9sAu+Gr+XKS3OwAJ6a1QvHKRc0jMpuPiAVx7645pi11db73lVgwaOBDdundDFMsSJKekYPDfTuF6W5u5YZV2rGJdyDZ6UDEGvBGkYvyU+3T4sGG49c47Me24o7F+w1oMyovCIQPPx+qNG1DIRhhBh0YJ7CVkYqM4D9037zuEZWciumMfbE9Jx9YPP2be/vnuwYWI702hnWMHVbX+DdV2x+jIuSBZK1drwEEkNwaNos1j59YsOlPm4aknn8TZZ52F1AYNsI0772pL6mb0u6pPV3ndp5BIZs2cyXW2ejhiNwXE7ty9q2AMeCNIMEYquTdW6xpqtH6aMwdHjh2Lu448HOCkJi1JGkWbQ4ETwkkctNBFc4QpWbOMk6poaY/OR8GsSejZqw963Ho+mjZtjhYtW6Iu56LXpepWfl9KLyFaFnD18ipPc9M3kfDGf/oJ7n93Anpeeg7ZtQzMfv8lfD9+Itq1bYsGJIqTTxrgiONduqUo3Qn0IRNxCHS+5KKLMOmLSY5AJPt4UDkGPAKpHEe7Y1BeMFYrjj33Ky+8gFPWbcDtU6biwBZNuM2B30biBGG2Px95/QgK80m9j+aCDQmYxeV8Lo3ejicefoBTz2nMqwY0btwQmZupQ5u0ENHN2iEssa5LLfkmLS2NWqoHMI9z0sUCptMFJZ71W71qFbZt3YrmJEKxdUce1Q9DzxqKa667FnHacMdjsyr9Ap4Wq1IUBUQo7XSNSFJTU/HBh2NxUv8TMX/Veuc9G0ZNlQEntiJnVw6X+tyMrevWUNW1FZszMtxcDMVRL/+7n0YN2j/UeG0E0XkX17yKoDYLRdx6YfM691MeS5ct1Qk9evbCb7/+yoYfzxGqJ+rWo0t9cjK3jk5yW1ErTutWLXXC+vXr3Vn5elAxBjwCqRg/5T4Vkcgnq0HDRtzu2b8tWxHlgCgK5Q5c2+N+gmSVIminKOIWCY3zdmLiz79wITnOPydISFY+e/wUxjR6Zs/9wjS9iNn4uZQ7sqjhKmR+go2ljb1Zs+aODVNYNq3wmZQ5tmZsRSZdTHJzuYoJIYkrwwt2cG6LB1XDgEcgVcNTyFhq2IKU1Prod1A3bGXD1LwLDTTi8UUj7keZQtsRJNIZMWfJNmSXEkj1enC6wNPTFw1prafdo0BqMiRh8cKFPHPdYI4YO7jsaA53wVXZaalpjvWKoTuM9ivMJUEVUwUskLzjQdUw4BFI1fBUYSwRQQz9ndQQnauJ2COGiURKuTJ3r41tADo80vGw6qCcSGg8RdJ6j+hw52dVpIkjrVti+fLllDMyUMBNcjR3JYdEGkarfFIiXU5iolCHy5pmZmzBDo4omZwPUp8TtBpx4WqBf2Ryl96hHAzsZpjLieAFV44B9dixXGghUvM7SAolZJH8Y0dpWtfGRSy6aIYtlEmqCiIMDj7uF0kZpHl8tFthXtNsm3Pk+vb7KVi7ejW2kOheePkVrgjUgi4qdHlhunieGzVsiC5dOtPaAtx5+10Y9tjDToCX7GMjYFXr8leM540gtfDVtcZtUVg0Nnz0PhLWLEQdrq1bwjBtO0By4U+EQTZLvX5aOpavWOEvVS2/qsCkUSSKppwXr7zrcHQIp6Fxv2bpuPW22/HFpK8w8q230LRVK1xz/Q1469URiCNLl801fsd//jmaUEYp4Nz3IUOHuBK90aNqiPdGkKrhKWQsNTLJEZINLr3ySnzKhvjTx6NQN7UJWvU8mEsAJSFH/lfqzqmZKtAcjVYpWLbsVyfgu8Wj+Yi0UynICVI2ksb16+IHbpazpW44lwyKw5w16/Dsa2/i6GOOLsujH91JfvzxRxoKVyNrOzf2pHwi+8dBfQ7iOtdc452jh7aS9qByDHiW9MpxVOUY6+in9e23U/HU8McwnbtSxac0QvseByOXjoN54ZQf6P+UyV68zcal+HriZ05YFoFV1Jvb80zKGdor8cFhD3Hy1CY0TW+KZ196GeM/+wwnnvg3R2RimxS/olXbLb8qv9RfPKJHILXUAAIbXtb2LOcY+NSjj+LbaT+5EtLadUFyo8a0TyRjxqejsGzpUmgqb2WygOW7PXMbsmj0e/W113HRRRc6VW3nbt25gFw2ZQ26KwbIFEpj6VS4rgUixIqI0UXyDntgwGOx9kBHzW8cu6UenFnISDfo1EE4hmzPjBkz8AW3kP78g3GY963f9VylrCb74+a6V7FIJ1CTzZIFvJAu7rKUC9bRDtKOhBYIwYTgEUUgdqp37TGi1cNXhbHF16shq8dWj55IK3a/o4/GI8OHY8q0GRw1luFXWrvPHHwGZs3iWr6EqjZesU1uohOJJJ8rKSZRljjxuGOdnFFhpbyHe4UBj0D2Cn2hE6vRBxKKYiXXT+aI0ZarJLbBaaefhnfeHOnsJoprLFCo3PjYgVS8msOh+Llc0lTnrt27Y+7cuaGSeWG1hAGPQGoJkaGyCSQUEYFcUwRdu3XD3IUL6BqyKVSyoDA/hWjj0Aj+RHiyu0gb1bZtG8ye7Z8c5ViwoJTe7d5jwCOQvcdhpTmIUIxYFLk5t0zjTA4sXKiVcncL0e6mnIOII5IzEGNjY52D4tRvv8W9N/0Tcpj0YN9hwCOQfYfb3+UsIpFsohl99zz2ECZNmuTiaHSxX3AiC4+gG4lcTZLoJj/0nHNxHD2ITzn7HNxwww1leQSn9e73HgOemnfvcVitHEwd+/Ps2W7i0i5auk0jZRmJKAxEVII8yh0F3MDzp5+m4eKLLsPMOTO5hCjXByYovsVzAd6h1jDgqXlrDZVVy8gastbZ6sxFFf711FNu5l8j2kiSk7kiO5cFCjeXeWZZRMOidqKSHUQ7VWVs24rVG9aQqOjVSzCCczfeodYx4I0gtY7SyjO0Rv3O2yNxNtklg1S6pvQ/7WS0aNXSbecse0cG9yFZv249Fv3yC5ZwdRLBQ1zj6uZ/3uz37nUh3mFfYcAjkH2F2QryNZaokKPDKk6L1eIKOmum3+rVq7B1C3en4jP5XiVzG4SGdE9v1KghF11IRXuub3UgvXOl9rV8KijKe7SXGPAIZC8RWNPk5fkoqtHrZ+B22S2VQyxMZ484ArGx7649Atl3uK1SzmK3DCSfmIxiYXYOJBzP5mFY2fdnj0D2PY6rVULg6KGEMgrq34P/DAY8LdZ/Bu9lpQYThD0oY6H2AXEEjkYVjVpWl7/y2RtB/gNf34iiPHZqX1bJNGiBZYQKC3z+V772COQP/Pplo0JAmVroQT81UvvlcfkgLd2j1RITaDkPlS4giypfWj4FVB9v2LDBlde4cWPnvlLlTP5iEfcZi6WPXVP4Xxz2rXFu5oINL3BFRrmbyIq+adMmbOVEKK2dq/WqtGZWDi3mmp346aefYsCAAbVCIFb+tGnT8OCDD+IzzkQUHHHEEbjvvvvcuabf6386HRHnwR+AAXryulI4UUo63Ap/dIl3z0kgLo2lrWk1LT2Jo6zchg0b+jhCld1za4RaKaumdfyzpqvVEYQv6dSUWsnPHPHUu2g00bOKQKpLTQrK59bFWrfp0EMPrSj6f90zU8025R6BYqG2c365Zhqee+65aN26tRtBhCPhSkZAQW3JKCpbhsfHH3/c5duWi12v4MoqCm/ZsiVW0kJ/2223uWnC8guz7+gi/9UPREatAT+uy4vsQlnPRPxW+/q8886rtTr92TO6//77HX6aNWvGVYLcdjo+NmAXVhsjiH0TyhwuT84j4T494WU/rsji47YI7hkJxaHLRpw/O+7+iPrV6ghiPZ4WTNbU0jVr1kA8763c3UjzFrQ/hXoyi8cXdHOsf6Gf0aWXXoq//e1vbq4Eh///+X5LgrlGCskAAi0dJHzsK5Cw36tXLzdH3vYLUVma426gSVgC+z4W/pc+1zYVWo8VmO+CBQtcD0VE+9goyq5JNO769NNP91FgDUzCpZv8o9Eegf9DN9ZLc/0qhwOyOmV4qc0RRCizsrhviCujY8eObpSSrNOpUycX9tJLLzns/q/jvbpNqNYnTFnvQ0Q7flq9zwEHHIDrueGMQHtZGKhXE6gXFe9r6k6+hNeLGZJq4Wzf5IwzzsCzzz7LmYwL3Qj/22+/gZ0XHnvsMfzjH/+ohZL+97KoVRYrED0mlCpMDd4mBQWGW3wRk0BCun1Me+ad9x4Dwqm+gfB7JVeA7N+/P5YsWeI6sP3oHWzLBnkd0+9xvc8IJLAofSAjgsDw2rrWhxUEf+A/gtis7MB3+SPKDSyvKtdGJIorrZl+BvYOtV1vy9fK0bk2yqhKvhZnb8v7QwikthATiGghQD+NSIYEOwfGE2EqPNQzxbN8AtOEihsYZmkCyw5MX1mZgXGre21lB9ZHeSg8OEz3Fj+wnODOKtSobvGD4yo8uJzgMCszVL4VPbMyQ52tHuXhXGlCxQmFl1D5lxf2hxFIeRWobngggu1DyS1DtgXZXxQmzYxW/6jDJTntIwl5dh1YpuJbPoHh5V1bPpZG1nCVK/lJZUquMjuGxS0vr5qEl1dfq09wnuXFD45X3n0onJUXN/jbCCfCj76N8tF3EX5UJ8UVlFdvK8MauNVDecrTQNpQXcsjIYqLWQR+a6WRK43KkkbV8rA8q3P+ryIQa3BCqlwzpEKeOnWqW8n8m2++KXvvJk24unqrVjjssMNw+OGH45BDDuEOTPXcc0OWnbUBjfbWkH+SkK6PmcU54HL7EOHpI8jt45xzznFqUn0oxdPq6V9++aUzrn3//fcu7xYtWjiFwymnnOLmmatBWJ3LKlfDC6uv3lfCtRqE6hYMIk7VT89VD7m2yBCouPaOejdza9H7qsGpoUmRIiK3svRs0aJFznira2rDnCuM8GMuMTLsKlxptXOVvo3cZ2iZd/iZMmWK2+RH9ezduzeOP/54nHrqqejataurupUV/B66D8SdZKbvvvsOP/zwA+bNm4eZM2eWJXGL8Z12GvdB6eK+teqn/N9++22cxW2xKyqjLJPyLpj4D4Hbb7/dqRPT09PdmfXxtSxVbf773/92dSBCyq2LqSr58X3jxo3zycClPOw3bNgw39ixY3133nlnWZg9o2XeR6t1Wd4qx8q64IILfhff0gWelbeAU2N9l1xySVka9l7umgJwWZjSnXbaab6MjAyXxspyN6UHe5+qqnktjyeeeGKPcgLrGHjNhuhKYiOpUnylJdG4NCQmd6Ydq8pp7V0nTpy4R5pAtX5g/UaOHFmKidAnw4+Mzvfee+8eeSofauR8//rXv3xPPvmkjwS3x/POnTu7+1deecVlbnmFLqniUFHXHwJ7QyD2guwZfJdddlkZMthLuGv2Unu8w2uvvebCDzzwwDKrtJD68ssvl8WzBscRxPfRRx/5Bg0a5NLILiDC5Qjk44jg69atmwuXrxJ7Yncd+KF1zRHLWcHZC/uoxvZZva644ooyG4SVZxWwd6oqgVg69tg+zl33ffDBB64u7DV9+qkesis999xzvvnz5/s4+rkk7M19EyZM8Bn+27dv75P9Q++n96QGyyfr+sEHH+zjqODSWF05avimT5/ue/75513+SqP4lpaCvk+djzo9EYjZWYLxQ49hl54sj8Op7DCKU57/l5XP0c/XvXt3F1fldujQwV1/9dVXZXhVhdVpcgnWsm9oBEKV9h7v426qefjTE4ghS4bEwYMHOwQJAfpIQvLDDz9chgQhSiBCsudkGXwc+n2GtM8//9zFsQbqbnhQT0XPWZcnLc3urPz1UXW+7rrr3Fn5jR492ifHP67c7noxPQ90/NO9lUf2K2R5Vn51CcTwISJROfZ78cUXfSKGQLC4FqaOQPHpD1aWjjy6uxaRBROIpdOZLKyLF8gB2OigTuTqq692z2+66SYfWU8fWSCfOi77ZnKOtLqqE9E1Wa4yQg6uq/BDlbSLp47Oyn3ggQfKqqU0gelUf0uj/DXCCALjlCWu4sV/DYE89NBDZcjSyxsB/Pzzz+5VjS0wZFiPKR8nxVcvSf7YJ5ZIxCAwBJM3d/fGHpg3rdLpZ/d33XWXIz4XOeCgkUnxjGXUtZUr9kBg9bJkNSEQS0OZwUfXHFemvBAoJ1i2rmdVPCtPZ+s4dB44cKBLp9GG8pTrPFTf8gjE8KoCaEx0aa2BK53wqrN+IoxgEK41Ouk55cDf+ZuJkAT2bnbWiKA0NDK7s31vs/jbOymt3tHqKSKhy5JLM3z4cD0uw4W7qeah1i3pfKlaA764E/pmcxVCNnhwiAXZB+e3JMFZoAk/AtNyuBseJLgJTKNExHGx57ZOgDUBj7hy+cuAJrDtkfmR3L0O8iyWUHzjjTeCjd1pRfRcdeNHcfFOPvlkd5ZwKsFcdZGAL5BQado1lVdTUJnKV3mpLmwozipOXt7hRfVR/oqjn2mHdDYcKNzsH9L8VKU+hhvVm0Tvqi+B3sCUH2R7cDS3ehCoLoaf5ORkcFRx4fLHCy5z2bJl7lnwQd9ZoPcV6PsJ5AEtxYDeSXnZe6uewpE0V+QqXFzNsxEYLtxNNQ9/agLRBxW8+eab7mxIklVeGpmTTjrJrXKuh0KWIUz3cowUWB66FmIFRiDBiAv+eIprDnzHHHOMy0tEoY+hfK3xiLA0sUkf0zwG9OEE0pAFEpwLrOZB6VWW3l+WcE24olzhrqV1MuIJfh8rJvC9jKjtWXXO9k6Wnxws5ZAqoKzgzooj3NhPgZTl3LNQByMAe2bvoOkAAsMdZRzXGVJB41zz5QyregSWo7QqnyyZW7NYeVidLf/qnv+0al5DtHZievrpp11ProXVBPowAvXu1iCFKIE1WjUcu1eYkGeNQyOCrq1ndRHLORiCOaS7GFZOYHSF2eija2tAiqP0gfeB6Sq7tsai3l694cUXX4wPP/wQFHKdylnpjXgqysvyUZzA64rSVPWZ8tP7GX5C5a/6Cwz/gXkH40b3ykP2C4F9T4XJtiGO4Sku16oflSBOnS58UEbZY+owWfKyjiOwvOpe7xWB6GWCXzBUA6pupQLjqzELhLCNGze6a+m5BXPmzHGOdrq2hqizGr6c8ARKY41cunyBCE0jkA3TLrCSQ6gPb0n0zJ7b2Z4F48fCKzpbGmtQYiflaCh2jQIxKHeBam1Q5esakOIHl1tR/vviWUXlV/SsvLrsv//+7lEgO6d8jEhEONSuuZ8iaqoE5Sv069fPsdeB6coroyrhNSYQ+yihXt6eVaUClcWRkUtgPZSuxSoJAdr/T7+KQAYxAwqM7jIwL3v2ZzpbJ6NOQXXWLESB5CoRB1W1oP7f8fwnnnii6wCsp/0zvUdN6mLtiVpAUAEB2p+cM6XJKkYkylschGQOWevHjx/vfgrnJDTQHOA8x9U5Gj71rLpQIwIxAlAPpw+mymsYlVu7hju9hMWpboUsviHKGriNAnou+UIsx9lnn+2mkQazNYqj8vULBYpvLJjVNVS8/1SYEbIsx3fccYerhohDo6nqq05Dwq96TbGgEp73tiH8p941uFy9n95FbPQjjzziCETtS+1Ko0dmZmZZEuMo1PY0CUwKA33zu+++2/2W00uC2q+9wk21CcQavrQ0t9xyS9kQZ7UWb3jNNdc4qrW49qy8sxFDqOehqN/ChMT/xdmHIn7tQqUPLbbBiMM6Ao2gmlejxqIVSsRqaASpKr5D4fnPFKb3VOer9xZxXHjhhc6lSHVUZ6DvLvcYudFIBlNc4cI6FrFncpGREkduQJIPa4qbGmuxXn/9dfdhpL0QleplqEt3PjnyURKoUlWBUPEsTGtDCQIFapMllnKv8cARRmkq+6l3sryrUrf/RBwJohoZ6DbjhHJNWRZo3obqrg5l7dq1Tr1LG4yLo+d/9vdSHSsDewf73lLNi30SqyWWS1ozjaQaTcSC6rk0jYYX4UbEQY8IaCq3LR5i+VZWfvDzahGIVULUqtFDFVy8eLFbIUOVlipOQGu1O1tPr3TG9wdW1EYOU6UGPnMZ8GD8t/HYSiOeUzp1sSBGIIqvZ5X9AutkZfzZzuKrBVrZRe8zZMgQp0aWw546DPsO6iCkvaG12jUavVsgK/pne6/K6mPvpW/6LfdgNFWv8EHfNrzzzjtuoteYMWNw+eWXu1FD6l7Flzxi7Uc4s7ZoTqz23SurQ/DzahOIMpBuX/preYxaw1e4NEMCsQBWWd3ro5nRJjC+qf/UCwSDXlLQksvSCJTe2AjlZ2pVE95cpEoOVicjIruvJNkf/tgaueFKeH700UddPUx20o3F0zWt/O5bqCH8Wd9L9awIrN4yuMoL+/3333fRxUbpXcVaaQakRhJNHZZ2T2pvyb6SR6zzCCxDrFggngKfVeW6WgRiGdqL2Nkas6hYIPdyhZmRR5XUcCfQtZ5pCDVruCzkAssn8Fo9pFypRSBmNddz5SOg0547K63VxwUEHBSuuiiO3LDfeustR8wVpQlIvleX5dWpokwND3YWjy2+WvUW66VGonz1XDiUVmvUqFFlDSq4zMD7wOvAOpQXHhhnX1/b+1rHKU2U3s+4B5Wvxq6fOgJNa5BL/xS61J955plOJpFsVpvvUi0CsRcwK7Uo3Xr1luzp5R6gpWXM9cIqqo+quRuKI/ZI4Ro1dK2ewF7K8rcPYZSvxdUExoopnnhQyT5Kr0ZvaQ2BKsOulVb1lG1E7hBcd8sJfwq3Ouq6pqA8yssn8OOGyj9UuuAwezc1ArEaYq2MpdAzsV6yVmvOiq7VeKxzClVmqDDj+UM9qygsuK6h4lYlTmC6QJxJ6SPQOxlh6FqgfNV5iN22RUHE9gs02gjkWqP41a2DS8xDjQhEFdL2wypUjVsEI9WjQD26KqmKG9LlHiCwjyYNjWQXgfjr8sBeTJNfpPeX8CVFgL2siESIUKOXPKLGojT6BV+LF5ULgkBDt4Zl5aN4RohKJ1CYgV3bM4ur50pvedhzhSuN1VGdgOVhafXMrq0xWBxLr7PlqfjCnd5V6+gK5PMVCOZGI9lQrK7yVRqVY+Upv8BylN7qoZ7a6mxp7LnFCU6r+Nbb23tYXEurs72Hrg2sLDsrnaW1PNWJyhgqRYRA+eidLI3qY3Uyuc3amPmIHXvssS6tpXE31TkwYbWAFXDxNeeA5fion3ZrXckbVP77wSD3csUjUfjIP/vIKrh7hZHtctEtz+C0uifSXDBlnrK5ICpT7s9EjstTeenH5TOdWzZ7WJ8m+1Bx4CPh+GhLKCvzmWeeKSvG8rYATeJRPprnwA/u3kvlKExu3CR6i1pWLwXQR6psToZc5fmB3YQucytXHcqD4DJVrqXT+wTixq71DqoTG5DDATsid685EwrnEqN71NXKpuxYhn/aUdz7KS1HH5fu448/tqjuHIgfvaMmYSl/vaPqKfy3bNnShdncjj0yKL2ZPHmyi0PW0J2Vlp2su9Y8HArjeyTT3BJzj7f5IJrbofkp5YHhUe1LbVH1pPavvOhVDhc1VhsMcUKoKqIfhSo3P0IvSy2Xj0YaH32o3DNN0jHkKK7uuTaTK9c+ekWVsDgiEs0gszIpk7gJPFQxl314exbqrElGBpan5lVoAo41OjVOEYXy1o+sTNmkq6uuusonl3g1FgFZR+fiLTd4lad6WDqd5fJuc0s0E5CaGddwKVC6dProSqfygstUXnqmMoVnjpZWdR/lMZ81cDVulaVJW5qTYh0Qp5q6eSucnuqbNWuW75NPPvGRRSurp97L6qq0RpTqTPSO1Ay58jSdgGrWslmUqldgWr0jOQiXr2aGyk1doM6EXtg+CtG+fv36uedWV5WrPOwdNQ+HMpSP7KFLq/k8Rx555B6LDAoXQ4cOdfNw9FxtUD9NDBNxqg7qMBRPP83f4ejt8rP26m6qeagRgQSWoQk/XPitrGKqnPW6Vlk7k/XyjRgxomxOhTXSwPzKuw6MK8TTGLlHmVZGqLPmkqxYsaIsayHM8gsk8lBpQ4VRc+byoi2oynWwfPRBbd6JhVXlbL072SdXto3MlaUN/jaVxbfnNsfECMfCKztrvolAnVllcYOfa8QUCEf2TMStGY02Ulm4iIUyV1k8C9fcE61pbKO9fWeXcQ0Oe7WBDstzPKA0SnI5kV8UexAnALNiTjYhsTiDlgyKkgHkEiBgIw3Jm7qH5RxUnsD4Tsk9kmX0kyJAfLhkH/lpqVz58+ina4HKVFr9rO5yfDQVsp5XBFYuez/nqiJ7kHT14o2rklbpZQmWF4L09GQ1qpROeUvOC7QI6z31zlan4HpbuOQWpVd8geEwOL7dK53isJd37yjZxNTNlaVVHlJDK63KlFOoyq0snZUpdbZUtUrDTsS500gjKpCVXCp9KYKkbNG7C4/Cp8qTvCLjoLR9ykegcg0PLqAGh70iEJUnRAQKYSIMEYzOEtLljh743JC1NxUPLtPeW3nrF1ienlUUXtN6KM+aprX6Vvf8nyizunWs7fj61sJzMK7VvqyNBX/v8tLUpG57TSAq1BpgqBepyvOaVFxphAhBqHIrq5NLyIPFs/uqnO2D1DRtTdKFekd7/4rqbA1LZVYHavqOgfWs7nsGprV3C1UPCwt8H4sfmEfg85pe1wqBBBYe/CHsAwXG8a49DNQGBtTW9nX7qnUCqY0X9/LwMPBnwUC1DIV/lkp79fAw8EdhwCOQPwrTXjn/lRjwCOS/8rN5lf6jMPD/kId3yJkMjm0AAAAASUVORK5CYII=;" vertex="1" parent="1">
          <mxGeometry x="130" y="396.5" width="200" height="122" as="geometry" />
        </mxCell>
      </root>
    </mxGraphModel>
  </diagram>
</mxfile>
